<svg width="132" height="133" viewBox="0 0 132 133" fill="none" xmlns="http://www.w3.org/2000/svg">
<g filter="url(#filter0_d)">
<ellipse cx="66.253" cy="65" rx="61.253" ry="62" fill="#6D79E9"/>
</g>
<path d="M69.0962 81.6048C69.0962 81.6048 70.6032 81.6048 74.1194 77.8366C77.6357 74.0683 78.138 73.4033 78.138 73.4033L87.0363 78.06M89.0455 50.5721C93.025 48.5811 95.2561 47.4648 99.2355 45.4739C99.2355 45.4739 92.6336 38.0661 85.8164 35.6468C76.7746 32.0263 69.9574 34.7313 69.9574 34.7313M89.0455 50.5721C84.2534 52.8228 81.5667 54.0846 76.7746 56.3353C76.7746 56.3353 72.756 50.1414 68.1634 48.5771M89.0455 50.5721C89.0455 50.5721 82.7608 38.3198 69.9574 34.7313M68.7374 95.9609C51.79 93.3763 45.846 74.0683 45.846 74.0683C45.846 74.0683 41.1816 59.4386 51.2997 51.3849C57.934 46.1042 65.4365 47.6483 68.1634 48.5771M68.7374 95.9609C68.8565 95.9791 68.9761 95.9964 69.0962 96.0129C90.3372 100.151 99.2355 84.4865 99.2355 84.4865L87.0363 78.06M68.7374 95.9609C68.7374 95.9609 58.4758 98.5897 48.7881 93.8702C38.7417 89.363 34.3644 78.871 34.3644 78.871C34.3644 78.871 22.5957 54.6359 45.846 38.4545C55.5309 33.3085 63.5583 32.9378 69.9574 34.7313M68.1634 48.5771C68.1634 48.5771 53.5243 56.3353 59.7674 73.1078C72.3255 92.2447 87.0363 78.06 87.0363 78.06" stroke="white" stroke-width="3.73494"/>
<defs>
<filter id="filter0_d" x="0.518072" y="0.0120481" width="131.47" height="132.964" filterUnits="userSpaceOnUse" color-interpolation-filters="sRGB">
<feFlood flood-opacity="0" result="BackgroundImageFix"/>
<feColorMatrix in="SourceAlpha" type="matrix" values="0 0 0 0 0 0 0 0 0 0 0 0 0 0 0 0 0 0 127 0"/>
<feOffset dy="1.49398"/>
<feGaussianBlur stdDeviation="2.24096"/>
<feColorMatrix type="matrix" values="0 0 0 0 0 0 0 0 0 0 0 0 0 0 0 0 0 0 0.25 0"/>
<feBlend mode="normal" in2="BackgroundImageFix" result="effect1_dropShadow"/>
<feBlend mode="normal" in="SourceGraphic" in2="effect1_dropShadow" result="shape"/>
</filter>
</defs>
</svg>
